<?xml version="1.0" encoding="utf-8"?>
<!-- Generator: Adobe Illustrator 24.1.0, SVG Export Plug-In . SVG Version: 6.00 Build 0)  -->
<svg version="1.1" id="Layer_1" xmlns="http://www.w3.org/2000/svg" xmlns:xlink="http://www.w3.org/1999/xlink" x="0px" y="0px"
	 viewBox="0 0 512 512" style="enable-background:new 0 0 512 512;" xml:space="preserve">
<g id="Shoot">
	<path d="M496,8H16c-4.42,0-8,3.58-8,8v288c0,4.42,3.58,8,8,8h73.38c3.4,9.58,12.46,15.99,22.62,16h17.02l23.06,169.08
		c0.6,4.38,4.63,7.44,9.01,6.85s7.44-4.63,6.85-9.01l-6.42-47.08c1.19-0.22,2.32-0.72,3.29-1.44l51.08-38.31l28.07,26.95
		l-57.49,55.19c-3.21,3.03-3.35,8.1-0.32,11.31c3.03,3.21,8.1,3.35,11.31,0.32c0.03-0.03,0.06-0.06,0.09-0.09l57.96-55.64
		l57.96,55.64c3.21,3.03,8.27,2.89,11.31-0.32c3-3.18,2.9-8.17-0.23-11.22l-57.49-55.19l28.21-27.08l50.92,38.43
		c1.05,0.79,2.27,1.31,3.57,1.52l-6.67,46.97c-0.62,4.37,2.42,8.42,6.8,9.05c4.37,0.62,8.42-2.42,9.05-6.8L382.94,328H400
		c10.17-0.01,19.22-6.42,22.62-16H496c4.42,0,8-3.58,8-8V16C504,11.58,500.42,8,496,8z M355.45,328l-61.43,58.97l-24.91-18.8
		L322.67,328H355.45z M255.82,358.14L215.88,328H296L255.82,358.14z M189.32,328l53.17,40.13l-25.34,19.01L155.55,328H189.32z
		 M159.16,430.63l-12.08-88.58l57.1,54.82L159.16,430.63z M255.5,423.95l-26.65-25.59l26.94-20.2l26.54,20.04L255.5,423.95z
		 M306.95,396.73l57.97-55.65l-12.75,89.78L306.95,396.73z M400,312H112c-4.42,0-8-3.58-8-8s3.58-8,8-8h288c4.42,0,8,3.58,8,8
		S404.42,312,400,312z M261.09,280c2.53-24.66,12.68-47.92,29.04-66.55L335,258.32c-10.58,9.3-22.73,16.65-35.89,21.68H261.09z
		 M346.32,247.01l-44.88-44.88c20.63-18.21,46.96-28.68,74.47-29.6C374.95,200.03,364.5,226.35,346.32,247.01L346.32,247.01z
		 M290.11,190.79L267.31,168l79.01-79.01c16.61,18.87,26.81,42.51,29.14,67.54C343.87,157.57,313.65,169.7,290.11,190.79
		L290.11,190.79z M256,156.69l-22.79-22.79c21.09-23.52,33.22-53.72,34.25-85.29c25.01,2.35,48.65,12.53,67.54,29.08L256,156.69z
		 M221.87,122.56L177,77.68c20.69-18.12,46.99-28.55,74.47-29.53C250.53,75.63,240.07,101.94,221.87,122.56z M165.68,88.99
		l44.88,44.88c-20.63,18.21-46.96,28.68-74.47,29.6C137.05,135.97,147.5,109.65,165.68,88.99z M221.89,145.21l22.8,22.79
		l-79.01,79.01c-16.61-18.87-26.81-42.51-29.14-67.54C168.13,178.44,198.36,166.31,221.89,145.21L221.89,145.21z M256,179.31
		l22.8,22.8c-19.32,21.67-31.16,48.97-33.77,77.89h-32.16c-13.15-5.04-25.3-12.38-35.87-21.68L256,179.31z M488,296h-65.38
		c-3.4-9.58-12.46-15.99-22.62-16h-68.58c7.88-5.13,15.68-10.77,20.75-15.83c53.11-53.11,53.11-139.22,0-192.33c0,0,0,0,0,0
		c-53.02-53.03-139.3-53.03-192.33,0c-53.11,53.11-53.11,139.22,0,192.33c0,0,0,0,0,0c5.06,5.06,12.86,10.7,20.75,15.83H112
		c-10.17,0.01-19.22,6.42-22.62,16H24V24h464V296z"/>
	<path d="M48,56h64c4.42,0,8-3.58,8-8s-3.58-8-8-8H48c-4.42,0-8,3.58-8,8S43.58,56,48,56z"/>
	<path d="M136,56h8c4.42,0,8-3.58,8-8s-3.58-8-8-8h-8c-4.42,0-8,3.58-8,8S131.58,56,136,56z"/>
</g>
</svg>
