<svg id="Layer_1" height="512" viewBox="0 0 512 512" width="512" xmlns="http://www.w3.org/2000/svg" data-name="Layer 1"><circle cx="349.704" cy="163.824" r="9.056"/><circle cx="278.407" cy="129.194" r="8.037"/><path d="m433.223 129.083a7.019 7.019 0 1 0 -7.019-7.019 7.026 7.026 0 0 0 7.019 7.019z"/><path d="m154.259 233.083a10.074 10.074 0 1 0 10.074-10.074 10.085 10.085 0 0 0 -10.074 10.074zm12 0a1.926 1.926 0 1 1 -1.926-1.926 1.928 1.928 0 0 1 1.926 1.926z"/><circle cx="159.24" cy="257.528" r="7.019"/><path d="m273.314 444.029a9.056 9.056 0 1 0 9.056 9.055 9.064 9.064 0 0 0 -9.056-9.055z"/><circle cx="165.352" cy="332.898" r="7.019"/><path d="m51.277 303.473a10.074 10.074 0 1 0 10.074 10.073 10.086 10.086 0 0 0 -10.074-10.073z"/><path d="m459.705 243.157a10.074 10.074 0 1 0 -10.074-10.074 10.084 10.084 0 0 0 10.074 10.074z"/><circle cx="193.87" cy="45.675" r="7.019"/><path d="m99.656 432.315a12.112 12.112 0 1 0 12.112 12.112 12.125 12.125 0 0 0 -12.112-12.112z"/><circle cx="422.02" cy="461.232" r="7.019"/><path d="m88.962 30.286a10.074 10.074 0 1 0 -10.074-10.074 10.085 10.085 0 0 0 10.074 10.074zm0-12a1.926 1.926 0 1 1 -1.926 1.926 1.929 1.929 0 0 1 1.926-1.926z"/><path d="m318.13 23.378a11.093 11.093 0 1 0 11.093 11.093 11.106 11.106 0 0 0 -11.093-11.093zm0 12a.907.907 0 1 1 .907-.907.908.908 0 0 1 -.907.907z"/><circle cx="342.574" cy="51.786" r="7.019"/><circle cx="71.647" cy="34.471" r="7.019"/><circle cx="48.222" cy="189.287" r="8.037"/><path d="m457.668 51.675a8.037 8.037 0 1 0 -8.037-8.037 8.046 8.046 0 0 0 8.037 8.037z"/><path d="m210.125 344.523a18.283 18.283 0 0 1 -11.487-11.523 6 6 0 0 0 -11.387 0 18.284 18.284 0 0 1 -11.486 11.525 6 6 0 0 0 0 11.381 18.284 18.284 0 0 1 11.486 11.525 6 6 0 0 0 11.387 0 18.283 18.283 0 0 1 11.487-11.531 6 6 0 0 0 0-11.381zm-17.181 9.052a30.517 30.517 0 0 0 -3.355-3.362 30.421 30.421 0 0 0 3.355-3.361 30.614 30.614 0 0 0 3.357 3.361 30.711 30.711 0 0 0 -3.357 3.362z"/><path d="m465.774 479.986a18.28 18.28 0 0 1 -11.487-11.524 6 6 0 0 0 -11.387 0 18.276 18.276 0 0 1 -11.486 11.524 6 6 0 0 0 0 11.381 18.28 18.28 0 0 1 11.486 11.525 6 6 0 0 0 11.387 0 18.284 18.284 0 0 1 11.487-11.525 6 6 0 0 0 0-11.381zm-17.18 9.052a30.6 30.6 0 0 0 -3.355-3.361 30.684 30.684 0 0 0 3.355-3.361 30.421 30.421 0 0 0 3.355 3.361 30.421 30.421 0 0 0 -3.355 3.361z"/><path d="m196.135 32.014a18.28 18.28 0 0 1 11.487 11.524 6 6 0 0 0 11.387 0 18.281 18.281 0 0 1 11.491-11.524 6 6 0 0 0 0-11.381 18.284 18.284 0 0 1 -11.491-11.525 6 6 0 0 0 -11.387 0 18.284 18.284 0 0 1 -11.487 11.525 6 6 0 0 0 0 11.381zm17.18-9.052a30.6 30.6 0 0 0 3.355 3.361 30.684 30.684 0 0 0 -3.355 3.361 30.421 30.421 0 0 0 -3.355-3.361 30.421 30.421 0 0 0 3.355-3.361z"/><path d="m346.853 192.342a6 6 0 0 0 4.1 5.691 26.379 26.379 0 0 1 16.58 16.633 6 6 0 0 0 11.388 0 26.377 26.377 0 0 1 16.579-16.633 6 6 0 0 0 0-11.381 26.377 26.377 0 0 1 -16.578-16.632 6 6 0 0 0 -11.388 0 26.382 26.382 0 0 1 -16.58 16.633 6 6 0 0 0 -4.101 5.689zm26.371-7.677a38.6 38.6 0 0 0 7.663 7.677 38.607 38.607 0 0 0 -7.663 7.678 38.691 38.691 0 0 0 -7.664-7.678 38.66 38.66 0 0 0 7.664-7.677z"/><circle cx="83.36" cy="464.797" r="8.037"/><path d="m53 106.441c1-6.683-2.938-13.272-9.622-14.688a12.4 12.4 0 1 0 -5.178 24.247 12.963 12.963 0 0 0 2.625.27c5.725-.004 11.175-4.007 12.175-9.829zm-12.335-2.185a.391.391 0 0 1 .081-.773.445.445 0 0 1 .081.008.391.391 0 1 1 -.162.765z"/><path d="m158.937 141.29a12.43 12.43 0 1 0 -2.593-.273 12.478 12.478 0 0 0 2.593.273z"/><path d="m237 196.378c1-6.683-2.881-13.272-9.564-14.688a12.392 12.392 0 1 0 -2.565 24.515 12.234 12.234 0 0 0 12.129-9.825zm-11.757-2.478a.391.391 0 0 1 -.764-.163.39.39 0 0 1 .381-.31.436.436 0 0 1 .081.008.393.393 0 0 1 .302.465z"/><path d="m306.37 271.8a12.44 12.44 0 1 0 -2.593-.274 12.494 12.494 0 0 0 2.593.274zm-.407-12.476a.39.39 0 1 1 .764.161.371.371 0 0 1 -.169.245.365.365 0 0 1 -.294.055.391.391 0 0 1 -.3-.463z"/><path d="m473.631 295.269a12.376 12.376 0 0 0 -4.99 24.244 10.9 10.9 0 0 0 2.4.27 12.051 12.051 0 0 0 11.959-9.825c2-6.686-2.686-13.274-9.369-14.689zm-1.995 12.2a.4.4 0 0 1 -.463.3.391.391 0 0 1 .081-.773.379.379 0 0 1 .081.009.392.392 0 0 1 .301.468z"/><path d="m313.8 347.613a12.39 12.39 0 1 0 -5.135 24.243 12.485 12.485 0 0 0 2.593.273 12.393 12.393 0 0 0 2.542-24.516zm-2.186 12.2a.391.391 0 0 1 -.463.3.375.375 0 0 1 -.246-.17.392.392 0 0 1 .115-.54.375.375 0 0 1 .209-.065.425.425 0 0 1 .085.01.372.372 0 0 1 .246.169.367.367 0 0 1 .052.297z"/><path d="m466.2 392.948a12.393 12.393 0 1 0 7.82 5.366 12.409 12.409 0 0 0 -7.82-5.366zm-2.184 12.2a.39.39 0 0 1 -.709.13.364.364 0 0 1 -.055-.293.391.391 0 0 1 .382-.31.454.454 0 0 1 .081.008.391.391 0 0 1 .3.463z"/><path d="m133.9 117.465-66.277-14.033a6 6 0 1 0 -2.486 11.739l66.272 14.034a6.073 6.073 0 0 0 1.249.131 6 6 0 0 0 1.238-11.871z"/><path d="m445 307.832a6 6 0 0 0 1.869-11.7l-112.395-36.866a6 6 0 1 0 -3.741 11.4l112.392 36.864a6.013 6.013 0 0 0 1.875.302z"/><path d="m437.376 405.512a6 6 0 0 0 1.944-11.678l-99.886-34.216a6 6 0 1 0 -3.889 11.353l99.887 34.216a6 6 0 0 0 1.944.325z"/><path d="m203.442 179.981a6 6 0 0 0 8.649-8.318l-29.982-31.172a6 6 0 1 0 -8.648 8.318z"/><path d="m285.275 239.438-39.555-30.914a6 6 0 1 0 -7.389 9.455l39.556 30.915a6 6 0 1 0 7.388-9.456z"/><path d="m306.929 279.751a6 6 0 0 0 -5.616 6.362l2.972 47.662a6 6 0 0 0 5.983 5.627q.189 0 .378-.012a6 6 0 0 0 5.616-6.362l-2.972-47.662a6 6 0 0 0 -6.361-5.615z"/><path d="m469.189 384.812c.14 0 .282 0 .424-.015a6 6 0 0 0 5.568-6.4l-3.238-46.412a6 6 0 1 0 -11.97.835l3.237 46.412a6 6 0 0 0 5.979 5.58z"/></svg>